<mxfile host="Electron" agent="Mozilla/5.0 (Windows NT 10.0; Win64; x64) AppleWebKit/537.36 (KHTML, like Gecko) draw.io/24.7.5 Chrome/126.0.6478.183 Electron/31.3.0 Safari/537.36" version="24.7.5">
  <diagram name="Page-1" id="Q8f--st9BYbmrqHcXDQI">
    <mxGraphModel dx="503" dy="293" grid="1" gridSize="10" guides="1" tooltips="1" connect="1" arrows="1" fold="1" page="1" pageScale="1" pageWidth="1169" pageHeight="827" math="0" shadow="0">
      <root>
        <mxCell id="0" />
        <mxCell id="1" parent="0" />
        <mxCell id="UAhTDfnkO_LT1UU-EM0x-3" value="Dynamic Bernoulli Embeddings" style="rounded=0;whiteSpace=wrap;html=1;labelPosition=center;verticalLabelPosition=top;align=center;verticalAlign=bottom;fillColor=#f5f5f5;strokeColor=#666666;fontColor=#333333;" parent="1" vertex="1">
          <mxGeometry x="450" y="257.5" width="550" height="235" as="geometry" />
        </mxCell>
        <mxCell id="UAhTDfnkO_LT1UU-EM0x-4" value="Negative Sampling" style="rounded=1;whiteSpace=wrap;html=1;fillColor=#dae8fc;gradientColor=#7ea6e0;strokeColor=#6c8ebf;" parent="1" vertex="1">
          <mxGeometry x="470" y="340" width="140" height="70" as="geometry" />
        </mxCell>
        <mxCell id="UAhTDfnkO_LT1UU-EM0x-5" value="SGD&amp;nbsp;&lt;br&gt;Loss Optimization" style="rounded=1;whiteSpace=wrap;html=1;fillColor=#dae8fc;gradientColor=#7ea6e0;strokeColor=#6c8ebf;" parent="1" vertex="1">
          <mxGeometry x="640" y="340" width="140" height="70" as="geometry" />
        </mxCell>
        <mxCell id="UAhTDfnkO_LT1UU-EM0x-6" value="Vectors Update" style="rounded=1;whiteSpace=wrap;html=1;fillColor=#dae8fc;gradientColor=#7ea6e0;strokeColor=#6c8ebf;" parent="1" vertex="1">
          <mxGeometry x="810" y="340" width="140" height="70" as="geometry" />
        </mxCell>
        <mxCell id="UAhTDfnkO_LT1UU-EM0x-8" value="" style="endArrow=classic;html=1;rounded=0;" parent="1" edge="1">
          <mxGeometry width="50" height="50" relative="1" as="geometry">
            <mxPoint x="280" y="374.71" as="sourcePoint" />
            <mxPoint x="450" y="374.71" as="targetPoint" />
          </mxGeometry>
        </mxCell>
        <mxCell id="UAhTDfnkO_LT1UU-EM0x-9" value="&lt;div style=&quot;direction: ltr;&quot;&gt;&lt;span style=&quot;background-color: initial;&quot;&gt;W&lt;/span&gt;&lt;sub style=&quot;background-color: initial;&quot;&gt;g&lt;/sub&gt;&lt;sup style=&quot;background-color: initial;&quot;&gt;(t)&lt;/sup&gt;&lt;span style=&quot;background-color: initial;&quot;&gt;&amp;nbsp;&amp;nbsp;= {w&lt;/span&gt;&lt;sub style=&quot;background-color: initial;&quot;&gt;1&lt;/sub&gt;&lt;sup style=&quot;background-color: initial;&quot;&gt;(t)&lt;/sup&gt;&lt;span style=&quot;background-color: initial;&quot;&gt;&amp;nbsp;, w&lt;/span&gt;&lt;sub style=&quot;background-color: initial;&quot;&gt;2&lt;/sub&gt;&lt;sup style=&quot;background-color: initial;&quot;&gt;(t)&lt;/sup&gt;&lt;span style=&quot;background-color: initial;&quot;&gt;&amp;nbsp;,...,w&lt;/span&gt;&lt;sub style=&quot;background-color: initial;&quot;&gt;r&lt;/sub&gt;&lt;sup style=&quot;background-color: initial;&quot;&gt;(t)&amp;nbsp;&lt;/sup&gt;&lt;span style=&quot;background-color: initial;&quot;&gt;}&lt;/span&gt;&lt;/div&gt;" style="edgeLabel;html=1;align=center;verticalAlign=middle;resizable=0;points=[];labelBackgroundColor=none;fontStyle=1;fontSize=14;" parent="UAhTDfnkO_LT1UU-EM0x-8" vertex="1" connectable="0">
          <mxGeometry x="-0.5412" y="-1" relative="1" as="geometry">
            <mxPoint x="21" y="24" as="offset" />
          </mxGeometry>
        </mxCell>
        <mxCell id="UAhTDfnkO_LT1UU-EM0x-12" value="" style="curved=1;endArrow=classic;html=1;rounded=0;entryX=1.004;entryY=0.135;entryDx=0;entryDy=0;entryPerimeter=0;" parent="1" target="UAhTDfnkO_LT1UU-EM0x-3" edge="1">
          <mxGeometry width="50" height="50" relative="1" as="geometry">
            <mxPoint x="930" y="257.5" as="sourcePoint" />
            <mxPoint x="980" y="207.5" as="targetPoint" />
            <Array as="points">
              <mxPoint x="920" y="210" />
              <mxPoint x="1040" y="200" />
            </Array>
          </mxGeometry>
        </mxCell>
        <mxCell id="UAhTDfnkO_LT1UU-EM0x-13" value="for each node&lt;div style=&quot;font-size: 14px;&quot;&gt;in&amp;nbsp;&lt;span style=&quot;background-color: initial;&quot;&gt;w&lt;/span&gt;&lt;sub style=&quot;background-color: initial;&quot;&gt;i&lt;/sub&gt;&lt;sup style=&quot;background-color: initial;&quot;&gt;(t)&lt;/sup&gt;&lt;/div&gt;" style="edgeLabel;html=1;align=center;verticalAlign=middle;resizable=0;points=[];labelBackgroundColor=none;fontStyle=1;fontSize=14;" parent="UAhTDfnkO_LT1UU-EM0x-12" vertex="1" connectable="0">
          <mxGeometry x="0.0388" y="-13" relative="1" as="geometry">
            <mxPoint x="59" y="-25" as="offset" />
          </mxGeometry>
        </mxCell>
        <mxCell id="UAhTDfnkO_LT1UU-EM0x-14" value="" style="curved=1;endArrow=classic;html=1;rounded=0;exitX=0.75;exitY=1;exitDx=0;exitDy=0;entryX=0.25;entryY=1;entryDx=0;entryDy=0;" parent="1" source="UAhTDfnkO_LT1UU-EM0x-4" target="UAhTDfnkO_LT1UU-EM0x-5" edge="1">
          <mxGeometry width="50" height="50" relative="1" as="geometry">
            <mxPoint x="670" y="440" as="sourcePoint" />
            <mxPoint x="720" y="390" as="targetPoint" />
            <Array as="points">
              <mxPoint x="610" y="430" />
              <mxPoint x="670" y="430" />
            </Array>
          </mxGeometry>
        </mxCell>
        <mxCell id="UAhTDfnkO_LT1UU-EM0x-15" value="Node Sequences" style="edgeLabel;html=1;align=center;verticalAlign=middle;resizable=0;points=[];labelBackgroundColor=none;fontStyle=1;fontSize=14;" parent="UAhTDfnkO_LT1UU-EM0x-14" vertex="1" connectable="0">
          <mxGeometry x="0.3106" y="1" relative="1" as="geometry">
            <mxPoint x="-19" y="11" as="offset" />
          </mxGeometry>
        </mxCell>
        <mxCell id="UAhTDfnkO_LT1UU-EM0x-16" value="" style="curved=1;endArrow=classic;html=1;rounded=0;exitX=0.75;exitY=1;exitDx=0;exitDy=0;entryX=0.25;entryY=1;entryDx=0;entryDy=0;" parent="1" edge="1">
          <mxGeometry width="50" height="50" relative="1" as="geometry">
            <mxPoint x="740" y="410" as="sourcePoint" />
            <mxPoint x="840" y="410" as="targetPoint" />
            <Array as="points">
              <mxPoint x="775" y="430" />
              <mxPoint x="835" y="430" />
            </Array>
          </mxGeometry>
        </mxCell>
        <mxCell id="UAhTDfnkO_LT1UU-EM0x-17" value="Network Embedding&amp;nbsp;&lt;br style=&quot;font-size: 14px;&quot;&gt;{M1, M2,...,Mt}" style="edgeLabel;html=1;align=center;verticalAlign=middle;resizable=0;points=[];labelBackgroundColor=none;fontStyle=1;fontSize=14;" parent="UAhTDfnkO_LT1UU-EM0x-16" vertex="1" connectable="0">
          <mxGeometry x="0.3106" y="1" relative="1" as="geometry">
            <mxPoint x="-19" y="11" as="offset" />
          </mxGeometry>
        </mxCell>
        <mxCell id="UAhTDfnkO_LT1UU-EM0x-20" value="" style="endArrow=classic;html=1;rounded=0;" parent="1" edge="1">
          <mxGeometry width="50" height="50" relative="1" as="geometry">
            <mxPoint x="1000" y="380" as="sourcePoint" />
            <mxPoint x="1110" y="380" as="targetPoint" />
          </mxGeometry>
        </mxCell>
        <mxCell id="UAhTDfnkO_LT1UU-EM0x-21" value="Dynamic&lt;br style=&quot;font-size: 14px;&quot;&gt;Network&lt;br style=&quot;font-size: 14px;&quot;&gt;Embedding" style="edgeLabel;html=1;align=center;verticalAlign=middle;resizable=0;points=[];labelBackgroundColor=none;fontStyle=1;fontSize=14;" parent="UAhTDfnkO_LT1UU-EM0x-20" vertex="1" connectable="0">
          <mxGeometry x="0.2095" y="-1" relative="1" as="geometry">
            <mxPoint x="23" y="33" as="offset" />
          </mxGeometry>
        </mxCell>
      </root>
    </mxGraphModel>
  </diagram>
</mxfile>
